# xmcd
#
# Track frame offsets:
# 151
# 12789
# 24710
# 38506
# 51619
# 65164
# 78253
# 90370
# 104173
# 117387
# 128774
# 141810
# 155443
# 167270
# 179446
# 191378
# 201824
# 214101
#
# Disc length: 2987 seconds
#
#
# Revision: 0
# Processed by: cddbd v1.5.1PL2 Copyright (c) Steve Scherf et al.
# Submitted via: FreeRIP 2.92 
#
DISCID=f50ba912
DTITLE=Robert Johnson - The Best of Robert Johnson
DYEAR=2005
DGENRE=Blues
TTITLE0=Traveling Riverside Blues
TTITLE1=Me and the Devil Blues
TTITLE2=Sweet Home Chicago
TTITLE3=Rambling on my Mind
TTITLE4=I Believe I'll Dust My Broom
TTITLE5=Kindhearted Woman Blues
TTITLE6=When you got a Good Friend
TTITLE7=Terraplane Blues
TTITLE8=32-20 Blues
TTITLE9=Walking Blues
TTITLE10=Preaching Blues
TTITLE11=They're Red Hot
TTITLE12=If I had Possesion Over Judjement Day
TTITLE13=Phonograph Blues
TTITLE14=I'm a Steady Rollin' Man
TTITLE15=Milkcow's Calf Blues
TTITLE16=Cross Road Blues
TTITLE17=Little Queen of Spades
EXTD=
EXTT0=
EXTT1=
EXTT2=
EXTT3=
EXTT4=
EXTT5=
EXTT6=
EXTT7=
EXTT8=
EXTT9=
EXTT10=
EXTT11=
EXTT12=
EXTT13=
EXTT14=
EXTT15=
EXTT16=
EXTT17=
PLAYORDER=
